<svg width="50" height="50" viewBox="0 0 50 50" fill="none" xmlns="http://www.w3.org/2000/svg">
<path fill-rule="evenodd" clip-rule="evenodd" d="M17.1875 27.0834C17.1875 22.7686 20.6853 19.2709 25 19.2709C29.3148 19.2709 32.8125 22.7686 32.8125 27.0834C32.8125 31.3982 29.3148 34.8959 25 34.8959C20.6853 34.8959 17.1875 31.3982 17.1875 27.0834ZM25 22.3959C22.4112 22.3959 20.3125 24.4946 20.3125 27.0834C20.3125 29.6721 22.4112 31.7709 25 31.7709C27.5887 31.7709 29.6875 29.6721 29.6875 27.0834C29.6875 24.4946 27.5887 22.3959 25 22.3959Z" fill="black"/>
<path fill-rule="evenodd" clip-rule="evenodd" d="M22.1169 11.9791C19.9395 11.9791 18.1743 13.7443 18.1743 15.9217C18.1743 17.3091 17.1093 18.4642 15.7264 18.5765L11.0814 18.9538C10.1694 19.0278 9.41934 19.7022 9.24911 20.6013C8.31422 25.5387 8.24451 30.6012 9.04309 35.5627L9.24569 36.8214C9.43703 38.0102 10.4154 38.9145 11.6155 39.012L15.6621 39.3406C21.8771 39.8454 28.1229 39.8454 34.3379 39.3406L38.3844 39.012C39.5846 38.9145 40.5629 38.0102 40.7544 36.8214L40.9569 35.5627C41.7554 30.6012 41.6858 25.5387 40.7508 20.6013C40.5806 19.7022 39.8306 19.0278 38.9185 18.9538L34.2735 18.5765C32.8906 18.4642 31.8256 17.3091 31.8256 15.9217C31.8256 13.7443 30.0604 11.9791 27.8831 11.9791H22.1169ZM15.062 15.4952C15.2825 11.7905 18.3568 8.85413 22.1169 8.85413H27.8831C31.6431 8.85413 34.7175 11.7905 34.9379 15.4952L39.1714 15.839C41.486 16.027 43.3894 17.7384 43.8212 20.0199C44.8235 25.3131 44.8983 30.7404 44.0423 36.0591L43.8396 37.3179C43.4196 39.9275 41.2719 41.9129 38.6373 42.1268L34.5908 42.4554C28.2075 42.9737 21.7925 42.9737 15.4091 42.4554L11.3626 42.1268C8.72817 41.9129 6.58042 39.9275 6.1604 37.3179L5.9578 36.0591C5.10169 30.7404 5.17642 25.3131 6.17865 20.0199C6.61065 17.7384 8.51405 16.027 10.8285 15.839L15.062 15.4952Z" fill="black"/>
</svg>
