<svg width="50" height="50" viewBox="0 0 50 50" fill="none" xmlns="http://www.w3.org/2000/svg">
<path fill-rule="evenodd" clip-rule="evenodd" d="M5.84103 17.4027C5.25741 22.8254 5.28343 29.0796 6.09555 34.4802C6.54493 37.4685 8.98382 39.7594 11.9944 40.0212L15.1407 40.2946C21.7013 40.865 28.2988 40.865 34.8594 40.2946L38.0056 40.0212C41.0163 39.7594 43.4552 37.4685 43.9046 34.4802C44.7167 29.0796 44.7427 22.8258 44.159 17.403C44.0835 16.7743 43.9988 16.1465 43.9046 15.5198C43.4552 12.5315 41.0163 10.2405 38.0056 9.97881L34.8594 9.70531C28.2988 9.13501 21.7013 9.13501 15.1407 9.70531L11.9944 9.97881C8.98382 10.2405 6.54493 12.5315 6.09555 15.5198C6.00132 16.1464 5.91649 16.7741 5.84103 17.4027ZM15.4113 12.8186C21.7917 12.2639 28.2083 12.2639 34.5888 12.8186L37.735 13.0921C39.3065 13.2287 40.5796 14.4246 40.8142 15.9845C40.8385 16.1465 40.8623 16.3085 40.8854 16.4707L29.3 22.9071C26.6258 24.3927 23.3742 24.3927 20.7 22.9071L9.1147 16.4707C9.13774 16.3086 9.16145 16.1465 9.1858 15.9845C9.42038 14.4246 10.6935 13.2287 12.265 13.0921L15.4113 12.8186ZM41.2677 19.8331C41.6719 24.5575 41.5206 29.3177 40.8142 34.0154C40.5796 35.5754 39.3065 36.7712 37.735 36.9079L34.5888 37.1814C28.2083 37.736 21.7917 37.736 15.4113 37.1814L12.265 36.9079C10.6935 36.7712 9.42038 35.5754 9.1858 34.0154C8.47936 29.3177 8.3282 24.5577 8.7323 19.8332L19.1823 25.6387C22.8004 27.6487 27.1996 27.6487 30.8175 25.6387L41.2677 19.8331Z" fill="black"/>
</svg>
