<svg width="50" height="50" viewBox="0 0 50 50" fill="none" xmlns="http://www.w3.org/2000/svg">
<path fill-rule="evenodd" clip-rule="evenodd" d="M21.8494 7.89102C23.9006 5.83983 26.6825 4.6875 29.5833 4.6875H35.2083C36.0713 4.6875 36.7708 5.38706 36.7708 6.25V13.75C36.7708 14.6129 36.0713 15.3125 35.2083 15.3125H29.5833C29.5004 15.3125 29.421 15.3454 29.3623 15.404C29.3038 15.4626 29.2708 15.5421 29.2708 15.625V19.6875H35.2083C35.6896 19.6875 36.1438 19.9092 36.44 20.2884C36.736 20.6677 36.8408 21.1621 36.7242 21.629L34.8492 29.129C34.6752 29.8246 34.0504 30.3125 33.3333 30.3125H29.2708V43.75C29.2708 44.6129 28.5713 45.3125 27.7083 45.3125H20.2083C19.3454 45.3125 18.6458 44.6129 18.6458 43.75V30.3125H14.5833C13.7204 30.3125 13.0208 29.6129 13.0208 28.75V21.25C13.0208 20.3871 13.7204 19.6875 14.5833 19.6875H18.6458V15.625C18.6458 12.7242 19.7982 9.94221 21.8494 7.89102ZM29.5833 7.8125C27.5113 7.8125 25.5242 8.6356 24.059 10.1007C22.594 11.5659 21.7708 13.553 21.7708 15.625V21.25C21.7708 22.1129 21.0712 22.8125 20.2083 22.8125H16.1458V27.1875H20.2083C21.0712 27.1875 21.7708 27.8871 21.7708 28.75V42.1875H26.1458V28.75C26.1458 27.8871 26.8454 27.1875 27.7083 27.1875H32.1133L33.2071 22.8125H27.7083C26.8454 22.8125 26.1458 22.1129 26.1458 21.25V15.625C26.1458 14.7133 26.5079 13.839 27.1527 13.1943C27.7973 12.5497 28.6717 12.1875 29.5833 12.1875H33.6458V7.8125H29.5833Z" fill="black"/>
</svg>
